<svg width="138" height="31" viewBox="0 0 138 31" fill="none" xmlns="http://www.w3.org/2000/svg">
<path d="M47.5481 25.0001L44.5391 19.1691L43.7571 17.4011L43.4001 19.1691L42.2441 25.0001H40.3571L42.9411 12.5051H43.1451L46.5791 19.2541L47.5991 21.5151L48.6191 19.2541L51.9851 12.5051H52.1721L54.8581 25.0001H52.9881L51.7301 19.1691L51.3561 17.4011L50.6761 19.1691L47.6501 25.0001H47.5481ZM59.6287 25.1701C58.9374 25.1701 58.2914 25.0058 57.6907 24.6771C57.1014 24.3484 56.6254 23.8781 56.2627 23.2661C55.9 22.6541 55.7187 21.9231 55.7187 21.0731C55.7187 20.2571 55.8717 19.5431 56.1777 18.9311C56.495 18.3191 56.937 17.8431 57.5037 17.5031C58.0817 17.1631 58.7674 16.9931 59.5607 16.9931C60.0367 16.9931 60.4674 17.0781 60.8527 17.2481C61.2494 17.4068 61.578 17.6051 61.8387 17.8431C62.1107 18.0698 62.292 18.2908 62.3827 18.5061L62.4167 17.1971H64.1677V25.0001H62.4337L62.3997 23.6231C62.2864 23.8724 62.0937 24.1161 61.8217 24.3541C61.561 24.5921 61.2437 24.7904 60.8697 24.9491C60.4957 25.0964 60.082 25.1701 59.6287 25.1701ZM59.9347 23.6401C60.354 23.6401 60.7337 23.5438 61.0737 23.3511C61.425 23.1471 61.7027 22.8638 61.9067 22.5011C62.122 22.1384 62.2297 21.7078 62.2297 21.2091V21.0901C62.2297 20.5801 62.122 20.1381 61.9067 19.7641C61.7027 19.3788 61.425 19.0841 61.0737 18.8801C60.7337 18.6648 60.354 18.5571 59.9347 18.5571C59.1754 18.5571 58.603 18.8008 58.2177 19.2881C57.8437 19.7754 57.6567 20.3761 57.6567 21.0901C57.6567 21.8154 57.8437 22.4218 58.2177 22.9091C58.603 23.3964 59.1754 23.6401 59.9347 23.6401ZM66.1845 25.0001V17.1971H67.9865L68.0035 18.6251C68.2075 18.1604 68.5361 17.7751 68.9895 17.4691C69.4541 17.1518 70.0095 16.9931 70.6555 16.9931C71.4941 16.9931 72.1231 17.1688 72.5425 17.5201C72.9618 17.8601 73.2395 18.3474 73.3755 18.9821C73.5228 19.6168 73.5965 20.3704 73.5965 21.2431V25.0001H71.7605V21.2941C71.7605 20.3874 71.6698 19.6961 71.4885 19.2201C71.3185 18.7441 70.9161 18.5061 70.2815 18.5061C69.9528 18.5061 69.6128 18.6081 69.2615 18.8121C68.9101 19.0161 68.6155 19.3108 68.3775 19.6961C68.1395 20.0814 68.0205 20.5574 68.0205 21.1241V25.0001H66.1845ZM79.0778 25.1701C78.3864 25.1701 77.7404 25.0058 77.1398 24.6771C76.5504 24.3484 76.0744 23.8781 75.7118 23.2661C75.3491 22.6541 75.1678 21.9231 75.1678 21.0731C75.1678 20.2571 75.3208 19.5431 75.6268 18.9311C75.9441 18.3191 76.3861 17.8431 76.9528 17.5031C77.5308 17.1631 78.2164 16.9931 79.0098 16.9931C79.4858 16.9931 79.9164 17.0781 80.3018 17.2481C80.6984 17.4068 81.0271 17.6051 81.2878 17.8431C81.5598 18.0698 81.7411 18.2908 81.8318 18.5061L81.8658 17.1971H83.6168V25.0001H81.8828L81.8488 23.6231C81.7354 23.8724 81.5428 24.1161 81.2708 24.3541C81.0101 24.5921 80.6928 24.7904 80.3188 24.9491C79.9448 25.0964 79.5311 25.1701 79.0778 25.1701ZM79.3838 23.6401C79.8031 23.6401 80.1828 23.5438 80.5228 23.3511C80.8741 23.1471 81.1518 22.8638 81.3558 22.5011C81.5711 22.1384 81.6788 21.7078 81.6788 21.2091V21.0901C81.6788 20.5801 81.5711 20.1381 81.3558 19.7641C81.1518 19.3788 80.8741 19.0841 80.5228 18.8801C80.1828 18.6648 79.8031 18.5571 79.3838 18.5571C78.6244 18.5571 78.0521 18.8008 77.6668 19.2881C77.2928 19.7754 77.1058 20.3761 77.1058 21.0901C77.1058 21.8154 77.2928 22.4218 77.6668 22.9091C78.0521 23.3964 78.6244 23.6401 79.3838 23.6401ZM89.5407 29.0801C89.0987 29.0801 88.6737 29.0348 88.2657 28.9441C87.8691 28.8534 87.5234 28.7514 87.2287 28.6381C86.9341 28.5361 86.7357 28.4568 86.6337 28.4001L87.0417 26.7001C87.3137 26.8814 87.6481 27.0458 88.0447 27.1931C88.4414 27.3518 88.9231 27.4311 89.4897 27.4311C89.7504 27.4311 90.0167 27.4028 90.2887 27.3461C90.5721 27.3008 90.8384 27.1931 91.0877 27.0231C91.3371 26.8644 91.5354 26.6208 91.6827 26.2921C91.8414 25.9748 91.9207 25.5498 91.9207 25.0171V23.6231C91.6941 24.0424 91.3144 24.4051 90.7817 24.7111C90.2604 25.0171 89.6654 25.1701 88.9967 25.1701C88.3167 25.1701 87.6934 25.0058 87.1267 24.6771C86.5714 24.3371 86.1237 23.8611 85.7837 23.2491C85.4551 22.6258 85.2907 21.8948 85.2907 21.0561C85.2907 20.2514 85.4437 19.5488 85.7497 18.9481C86.0671 18.3361 86.5091 17.8601 87.0757 17.5201C87.6537 17.1688 88.3337 16.9931 89.1157 16.9931C89.5917 16.9931 90.0281 17.0781 90.4247 17.2481C90.8214 17.4068 91.1501 17.6051 91.4107 17.8431C91.6827 18.0698 91.8641 18.2908 91.9547 18.5061L91.9887 17.1971H93.7227V24.9491C93.7227 26.2298 93.3884 27.2384 92.7197 27.9751C92.0624 28.7118 91.0027 29.0801 89.5407 29.0801ZM89.5067 23.6231C89.9261 23.6231 90.3057 23.5268 90.6457 23.3341C90.9971 23.1301 91.2747 22.8468 91.4787 22.4841C91.6941 22.1214 91.8017 21.6908 91.8017 21.1921V21.0731C91.8017 20.5631 91.6941 20.1211 91.4787 19.7471C91.2747 19.3618 90.9971 19.0671 90.6457 18.8631C90.3057 18.6478 89.9261 18.5401 89.5067 18.5401C88.7474 18.5401 88.1751 18.7838 87.7897 19.2711C87.4157 19.7584 87.2287 20.3591 87.2287 21.0731C87.2287 21.7984 87.4157 22.4048 87.7897 22.8921C88.1751 23.3794 88.7474 23.6231 89.5067 23.6231ZM99.4787 25.1701C98.504 25.1701 97.7107 24.9831 97.0987 24.6091C96.4867 24.2238 96.039 23.7194 95.7557 23.0961C95.4724 22.4728 95.3307 21.8098 95.3307 21.1071C95.3307 20.2571 95.5007 19.5261 95.8407 18.9141C96.192 18.3021 96.6737 17.8318 97.2857 17.5031C97.8977 17.1631 98.589 16.9931 99.3597 16.9931C100.595 16.9931 101.496 17.3388 102.063 18.0301C102.629 18.7101 102.913 19.6281 102.913 20.7841C102.913 21.0901 102.896 21.4074 102.862 21.7361H97.2517C97.3764 22.4388 97.6257 22.9431 97.9997 23.2491C98.385 23.5438 98.895 23.6911 99.5297 23.6911C100.142 23.6911 100.623 23.6344 100.975 23.5211C101.326 23.4078 101.615 23.2944 101.842 23.1811L102.403 24.4901C102.176 24.6374 101.825 24.7904 101.349 24.9491C100.873 25.0964 100.249 25.1701 99.4787 25.1701ZM97.2517 20.4611H101.128C101.139 19.7244 100.975 19.2201 100.635 18.9481C100.295 18.6761 99.8527 18.5401 99.3087 18.5401C98.742 18.5401 98.2774 18.6931 97.9147 18.9991C97.5634 19.2938 97.3424 19.7811 97.2517 20.4611ZM104.5 25.0001V17.1971H106.336V18.7271C106.518 18.2171 106.807 17.8034 107.203 17.4861C107.611 17.1574 108.082 16.9931 108.614 16.9931C108.977 16.9931 109.226 17.0271 109.362 17.0951L109.107 18.9481C109.005 18.8801 108.784 18.8461 108.444 18.8461C108.161 18.8461 107.855 18.9084 107.526 19.0331C107.198 19.1578 106.914 19.3788 106.676 19.6961C106.45 20.0021 106.336 20.4328 106.336 20.9881V25.0001H104.5Z" fill="black"/>
<path d="M114.607 25.0001V12.5051H117.361C118.449 12.5051 119.321 12.6638 119.979 12.9811C120.636 13.2984 121.112 13.7404 121.407 14.3071C121.701 14.8624 121.849 15.5028 121.849 16.2281C121.849 17.5541 121.463 18.5798 120.693 19.3051C119.922 20.0191 118.755 20.3761 117.191 20.3761H116.528V25.0001H114.607ZM116.528 18.6931H117.242C117.99 18.6931 118.556 18.5741 118.942 18.3361C119.327 18.0981 119.588 17.8034 119.724 17.4521C119.86 17.1008 119.928 16.7608 119.928 16.4321C119.928 16.0354 119.854 15.6671 119.707 15.3271C119.559 14.9871 119.304 14.7094 118.942 14.4941C118.579 14.2788 118.069 14.1711 117.412 14.1711H116.528V18.6931ZM122.916 25.0001V17.1971H124.752V18.7271C124.933 18.2171 125.222 17.8034 125.619 17.4861C126.027 17.1574 126.497 16.9931 127.03 16.9931C127.393 16.9931 127.642 17.0271 127.778 17.0951L127.523 18.9481C127.421 18.8801 127.2 18.8461 126.86 18.8461C126.577 18.8461 126.271 18.9084 125.942 19.0331C125.613 19.1578 125.33 19.3788 125.092 19.6961C124.865 20.0021 124.752 20.4328 124.752 20.9881V25.0001H122.916ZM132.229 25.1701C131.413 25.1701 130.693 24.9888 130.07 24.6261C129.458 24.2634 128.982 23.7704 128.642 23.1471C128.302 22.5238 128.132 21.8324 128.132 21.0731C128.132 20.3251 128.296 19.6451 128.625 19.0331C128.965 18.4098 129.441 17.9168 130.053 17.5541C130.665 17.1801 131.39 16.9931 132.229 16.9931C133.068 16.9931 133.793 17.1801 134.405 17.5541C135.017 17.9168 135.487 18.4098 135.816 19.0331C136.145 19.6451 136.309 20.3251 136.309 21.0731C136.309 21.8324 136.139 22.5238 135.799 23.1471C135.47 23.7704 135 24.2634 134.388 24.6261C133.776 24.9888 133.056 25.1701 132.229 25.1701ZM132.28 23.6741C132.96 23.6741 133.481 23.4248 133.844 22.9261C134.218 22.4274 134.405 21.8211 134.405 21.1071C134.405 20.6198 134.314 20.1834 134.133 19.7981C133.952 19.4014 133.691 19.0841 133.351 18.8461C133.022 18.6081 132.631 18.4891 132.178 18.4891C131.736 18.4891 131.356 18.6081 131.039 18.8461C130.722 19.0841 130.472 19.4014 130.291 19.7981C130.121 20.1834 130.036 20.6198 130.036 21.1071C130.036 21.5831 130.132 22.0194 130.325 22.4161C130.518 22.8014 130.778 23.1074 131.107 23.3341C131.447 23.5608 131.838 23.6741 132.28 23.6741Z" fill="#0561FC"/>
<path d="M28.4167 15.5L23.25 5.16666L18.0833 15.5L23.25 25.8333L28.4167 15.5Z" stroke="#0561FC" stroke-width="3" stroke-linecap="round" stroke-linejoin="round"/>
<path d="M18.0833 5.16666L12.9167 15.5L18.0833 25.8333" stroke="#758892" stroke-width="3" stroke-linecap="round" stroke-linejoin="round"/>
<path d="M7.75 5.16666L2.58333 15.5L7.75 25.8333" stroke="#758892" stroke-width="3" stroke-linecap="round" stroke-linejoin="round"/>
<path d="M12.9167 5.16666L7.75 15.5L12.9167 25.8333" stroke="#758892" stroke-width="3" stroke-linecap="round" stroke-linejoin="round"/>
</svg>
